<svg width="58" height="58" viewBox="0 0 58 58" fill="none" xmlns="http://www.w3.org/2000/svg">
<path d="M29 2.71875C43.5 2.71875 55.2812 14.5 55.2812 29C55.2812 43.5 43.5 55.2812 29 55.2812C14.5 55.2812 2.71875 43.5 2.71875 29C2.71875 14.5 14.5 2.71875 29 2.71875ZM29 6.34375C16.4937 6.34375 6.34375 16.4937 6.34375 29C6.34375 41.5062 16.4937 51.6562 29 51.6562C41.5062 51.6562 51.6562 41.5062 51.6562 29C51.6562 16.4937 41.5062 6.34375 29 6.34375Z" fill="#F85454"/>
<path d="M36.1616 18.7623C37.0109 17.9129 38.3885 17.9129 39.2378 18.7623C40.087 19.6117 40.0871 20.9893 39.2378 21.8386L32.0763 29.0001L39.2378 36.1616L39.3865 36.3279C40.083 37.1822 40.034 38.4417 39.2378 39.2378C38.4417 40.034 37.1822 40.083 36.3279 39.3865L36.1616 39.2378L29.0001 32.0763L21.8386 39.2378C20.9893 40.0871 19.6117 40.087 18.7623 39.2378C17.9129 38.3885 17.9129 37.0109 18.7623 36.1616L25.9238 29.0001L18.7623 21.8386C17.9129 20.9892 17.9129 19.6116 18.7623 18.7623C19.6116 17.9129 20.9892 17.9129 21.8386 18.7623L29.0001 25.9238L36.1616 18.7623Z" fill="#F85454"/>
</svg>
