<svg width="72" height="72" viewBox="0 0 72 72" fill="none" xmlns="http://www.w3.org/2000/svg">
<path d="M36 9.71875C50.5 9.71875 62.2812 21.5 62.2812 36C62.2812 50.5 50.5 62.2812 36 62.2812C21.5 62.2812 9.71875 50.5 9.71875 36C9.71875 21.5 21.5 9.71875 36 9.71875ZM36 13.3438C23.4937 13.3438 13.3438 23.4937 13.3438 36C13.3438 48.5062 23.4937 58.6562 36 58.6562C48.5062 58.6562 58.6562 48.5062 58.6562 36C58.6562 23.4937 48.5062 13.3438 36 13.3438Z" fill="#D1242F"/>
<path d="M43.1616 25.7623C44.0109 24.9129 45.3885 24.9129 46.2378 25.7623C47.087 26.6117 47.0871 27.9893 46.2378 28.8386L39.0763 36.0001L46.2378 43.1616L46.3865 43.3279C47.083 44.1822 47.034 45.4417 46.2378 46.2378C45.4417 47.034 44.1822 47.083 43.3279 46.3865L43.1616 46.2378L36.0001 39.0763L28.8386 46.2378C27.9893 47.0871 26.6117 47.087 25.7623 46.2378C24.9129 45.3885 24.9129 44.0109 25.7623 43.1616L32.9238 36.0001L25.7623 28.8386C24.9129 27.9892 24.9129 26.6116 25.7623 25.7623C26.6116 24.9129 27.9892 24.9129 28.8386 25.7623L36.0001 32.9238L43.1616 25.7623Z" fill="#D1242F"/>
</svg>
