<svg width="158" height="106" viewBox="0 0 158 106" fill="none" xmlns="http://www.w3.org/2000/svg">
<path d="M42.7784 37.4101C41.9166 33.983 43.9856 30.4147 47.3994 29.4401L107.924 12.1584C111.338 11.1837 114.804 13.1716 115.666 16.5984L125.999 57.6943C126.861 61.1211 124.792 64.6894 121.378 65.6644L60.8535 82.9461C57.4397 83.9207 53.9737 81.9328 53.1119 78.5057L42.7784 37.4101Z" fill="#242629"/>
<path d="M39.217 31.714C39.217 28.1816 42.0964 25.3179 45.6482 25.3179H122.821C126.373 25.3179 129.252 28.1816 129.252 31.714V85.0155C129.252 88.5479 126.373 91.4116 122.821 91.4116H45.6482C42.0964 91.4116 39.217 88.5479 39.217 85.0155V31.714Z" fill="#585F67"/>
<path d="M47.7916 37.0445C47.7916 35.2783 49.2313 33.8464 51.0071 33.8464H117.461C119.237 33.8464 120.677 35.2783 120.677 37.0445V79.6854C120.677 81.4519 119.237 82.8837 117.461 82.8837H51.0071C49.2313 82.8837 47.7916 81.4519 47.7916 79.6854V37.0445Z" fill="#585F67"/>
<path d="M91.7372 56.2323C91.7372 52.6999 94.6166 49.8362 98.1681 49.8362H131.395C131.987 49.8362 132.467 50.3136 132.467 50.9024V65.8267C132.467 66.4155 131.987 66.8927 131.395 66.8927H98.1681C94.6166 66.8927 91.7372 64.0289 91.7372 60.4965V56.2323Z" fill="#242629"/>
<path d="M102.455 58.3646C102.455 60.1308 101.016 61.5626 99.24 61.5626C97.4642 61.5626 96.0245 60.1308 96.0245 58.3646C96.0245 56.5984 97.4642 55.1665 99.24 55.1665C101.016 55.1665 102.455 56.5984 102.455 58.3646Z" fill="#585F67"/>
<path d="M63.8692 31.714C63.8692 43.4892 54.2717 53.0347 42.4325 53.0347C30.5931 53.0347 20.9956 43.4892 20.9956 31.714C20.9956 19.9391 30.5931 10.3936 42.4325 10.3936C54.2717 10.3936 63.8692 19.9391 63.8692 31.714Z" fill="#2F3337"/>
<path d="M44.9546 34.2225C44.9546 35.6079 43.8254 36.7308 42.4327 36.7308C41.0398 36.7308 39.9106 35.6079 39.9106 34.2225V20.4267C39.9106 19.0416 41.0398 17.9187 42.4327 17.9187C43.8254 17.9187 44.9546 19.0416 44.9546 20.4267V34.2225Z" fill="#757C82"/>
<path d="M44.9541 43.0015C44.9541 44.3866 43.8249 45.5095 42.432 45.5095C41.0393 45.5095 39.9102 44.3866 39.9102 43.0015C39.9102 41.6161 41.0393 40.4932 42.432 40.4932C43.8249 40.4932 44.9541 41.6161 44.9541 43.0015Z" fill="#757C82"/>
</svg>
